Coordinates
version=1
nRows=26
nColumns=24
inDegrees=yes

Units are S.I. units (second, meters, Newtons, ...)
Angles are in degrees.

endheader
time	pelvis_tilt	pelvis_list	pelvis_rotation	pelvis_tx	pelvis_ty	pelvis_tz	hip_flexion_r	hip_adduction_r	hip_rotation_r	knee_angle_r	ankle_angle_r	subtalar_angle_r	mtp_angle_r	hip_flexion_l	hip_adduction_l	hip_rotation_l	knee_angle_l	ankle_angle_l	subtalar_angle_l	mtp_angle_l	lumbar_extension	lumbar_bending	lumbar_rotation
      4.20500000	    -13.43930436	      3.33343668	     -3.34058915	      2.48965361	     -0.00226472	     -0.48174510	     35.45575356	     -6.47757795	     -2.46435952	    -49.26855302	     -5.94662592	     11.09208467	     33.47716179	     10.01163640	      7.46165852	     -7.04467982	     -5.49934690	     -2.30897210	      4.91961239	      8.51754553	     10.37567617	     -6.06942738	     -2.45893279
      4.21000000	    -13.43062888	      3.19914095	     -3.21342535	      2.49489407	     -0.00245668	     -0.48202602	     35.72151241	     -6.27349886	     -2.63291504	    -48.20678737	     -5.71643649	     11.13795247	     32.86647235	      9.60875702	      7.37581262	     -6.83606138	     -5.40726772	     -2.06796310	      5.01706584	      8.47035170	     10.31977713	     -5.90964947	     -2.60841299
      4.21500000	    -13.39746316	      3.09722635	     -3.11875771	      2.50012437	     -0.00266591	     -0.48226353	     35.95406493	     -6.08748070	     -2.76104707	    -47.12057112	     -5.46578103	     11.31879784	     32.10134600	      9.18113090	      7.31954561	     -6.67090125	     -5.31105952	     -1.84387329	      5.10589368	      8.40115962	     10.24321552	     -5.77678252	     -2.71948204
      4.22000000	    -13.44536504	      2.98151327	     -2.98599321	      2.50529653	     -0.00298857	     -0.48248053	     36.24496518	     -5.89538930	     -2.94387249	    -45.96303375	     -5.29865403	     11.29188116	     31.78271068	      8.87401099	      7.24036003	     -6.47883485	     -5.26734881	     -1.62538049	      5.17463292	      8.44005574	     10.24407333	     -5.63989314	     -2.86518300
      4.22500000	    -13.42515558	      2.85598346	     -2.85967201	      2.51048745	     -0.00323798	     -0.48268743	     36.42721064	     -5.69828246	     -3.12996936	    -44.75280760	     -5.12965623	     11.35574159	     31.35581095	      8.48629105	      7.15179841	     -6.29295787	     -5.21671909	     -1.40422105	      5.26388840	      8.44824036	     10.17201819	     -5.49385020	     -3.01224470
      4.23000000	    -13.39598368	      2.74326022	     -2.74731425	      2.51566412	     -0.00350037	     -0.48285367	     36.58167984	     -5.50145030	     -3.29148577	    -43.50893807	     -4.96297990	     11.46317067	     30.83659584	      8.09325528	      7.07136285	     -6.12449075	     -5.17206341	     -1.18845519	      5.35556783	      8.44902387	     10.09091990	     -5.35850021	     -3.14250918
      4.23500000	    -13.37718638	      2.64282066	     -2.64273638	      2.52082183	     -0.00379630	     -0.48298095	     36.72866765	     -5.30883769	     -3.44013102	    -42.22812853	     -4.81779030	     11.59380931	     30.31465660	      7.71865036	      6.99799170	     -5.97339420	     -5.13616418	     -0.98426255	      5.44409226	      8.46569832	     10.02142338	     -5.23699997	     -3.26000888
      4.24000000	    -13.37528352	      2.54575981	     -2.53850886	      2.52599134	     -0.00412324	     -0.48309523	     36.86785619	     -5.11916541	     -3.59751971	    -40.90228854	     -4.71440846	     11.71120446	     29.87997106	      7.36477386	      6.92458660	     -5.83257222	     -5.10357550	     -0.79368879	      5.52992079	      8.50346038	      9.97249711	     -5.11761052	     -3.36852453
      4.24500000	    -13.36139808	      2.45072107	     -2.43763462	      2.53115006	     -0.00444457	     -0.48319015	     36.96733071	     -4.92782561	     -3.74371778	    -39.53225384	     -4.64259691	     11.84955296	     29.45764098	      6.99948765	      6.84982775	     -5.70151232	     -5.07231795	     -0.61074916	      5.62614359	      8.55185179	      9.91038828	     -5.00031881	     -3.47385589
      4.25000000	    -13.33357897	      2.36136621	     -2.33883804	      2.53628772	     -0.00475549	     -0.48326215	     37.02602099	     -4.73621731	     -3.86688203	    -38.12268981	     -4.60176811	     12.00538438	     29.00643867	      6.62373275	      6.77700293	     -5.57896710	     -5.04637416	     -0.43569697	      5.73942371	      8.61138291	      9.82868008	     -4.88992394	     -3.58216125
      4.25500000	    -13.31863542	      2.27757799	     -2.24395034	      2.54142398	     -0.00509005	     -0.48331244	     37.07480199	     -4.54416768	     -3.97494207	    -36.67733662	     -4.59745956	     12.16311562	     28.57802333	      6.26600529	      6.70539547	     -5.46767646	     -5.02566064	     -0.26762498	      5.85595017	      8.68004583	      9.76142106	     -4.78481719	     -3.68110764
      4.26000000	    -13.29886919	      2.19633969	     -2.15236419	      2.54654615	     -0.00542485	     -0.48334537	     37.09375541	     -4.34908467	     -4.05896263	    -35.19622546	     -4.62804823	     12.32833068	     28.14931777	      5.90936769	      6.63221974	     -5.36768828	     -5.01455991	     -0.10163835	      5.98573079	      8.75803659	      9.68627454	     -4.68210105	     -3.77800740
      4.26500000	    -13.28235874	      2.11572728	     -2.06144227	      2.55167001	     -0.00576540	     -0.48336997	     37.09138436	     -4.15094187	     -4.12301485	    -33.68333781	     -4.69592977	     12.48329238	     27.72349337	      5.56078607	      6.55549010	     -5.27669431	     -5.01022798	      0.06126582	      6.13321098	      8.84615788	      9.61409688	     -4.57786368	     -3.87144100
      4.27000000	    -13.27236213	      2.03583243	     -1.97285039	      2.55679026	     -0.00611745	     -0.48337409	     37.07279916	     -3.94743764	     -4.15918539	    -32.14130268	     -4.79740983	     12.62395442	     27.30999128	      5.22759249	      6.47395702	     -5.19734973	     -5.01969849	      0.22368899	      6.29736851	      8.94744099	      9.54709730	     -4.47524741	     -3.96113470
      4.27500000	    -13.32662843	      1.96854238	     -1.91058928	      2.56192746	     -0.00655570	     -0.48337326	     37.11677475	     -3.74523456	     -4.18043031	    -30.58719989	     -4.96825613	     12.77164920	     27.00159595	      4.96886221	      6.40049627	     -5.12399933	     -5.03677256	      0.37125736	      6.41996827	      9.03664109	      9.55686908	     -4.37169967	     -3.99385187
      4.28000000	    -13.32243723	      1.87506248	     -1.81770010	      2.56706008	     -0.00690940	     -0.48336158	     37.05397907	     -3.52348505	     -4.16866988	    -28.99105196	     -5.13819971	     12.83671126	     26.62665156	      4.66067322	      6.29393648	     -5.04970869	     -5.08206223	      0.53676341	      6.62630852	      9.16434141	      9.49444141	     -4.25626518	     -4.09568846
      4.28500000	    -13.23600023	      1.79367857	     -1.73949488	      2.57220886	     -0.00719974	     -0.48332061	     36.88244673	     -3.30116320	     -4.07519700	    -27.39129936	     -5.24854671	     12.91499091	     26.08000998	      4.26322954	      6.19625484	     -5.07419243	     -5.12144386	      0.70579417	      6.95357547	      9.35927725	      9.34336739	     -4.15092178	     -4.20197106
      4.29000000	    -13.33518342	      1.72665268	     -1.65927205	      2.57731807	     -0.00771291	     -0.48331428	     36.92338924	     -3.09768658	     -4.00008310	    -25.80532563	     -5.48860756	     12.93077453	     25.76000084	      4.09847263	      6.11043828	     -4.97977657	     -5.21877538	      0.85879224	      7.08421915	      9.47833141	      9.39080600	     -4.04913194	     -4.25702848
      4.29500000	    -13.26705660	      1.63732064	     -1.57472888	      2.58248842	     -0.00803177	     -0.48326601	     36.73548195	     -2.86483460	     -3.83090502	    -24.18886821	     -5.64967427	     12.85393530	     25.21014183	      3.74424206	      5.99390075	     -5.00757688	     -5.30315883	      1.03163510	      7.45203070	      9.69376174	      9.25848225	     -3.93533312	     -4.37154753
      4.30000000	    -13.37305423	      1.56241853	     -1.48290148	      2.58764150	     -0.00857497	     -0.48329667	     36.75119081	     -2.66454949	     -3.70907580	    -22.60392437	     -5.91258077	     12.75790963	     24.85352190	      3.60543636	      5.89605372	     -4.91087404	     -5.43816472	      1.19030905	      7.60238638	      9.82587593	      9.31433110	     -3.81868595	     -4.43453167
      4.30500000	    -13.30543644	      1.47399156	     -1.43105484	      2.59285074	     -0.00893641	     -0.48321457	     36.54535838	     -2.41739608	     -3.44962916	    -21.00873773	     -6.08502375	     12.58217126	     24.18447092	      3.27179821	      5.77036517	     -4.99362252	     -5.56323500	      1.37389139	      8.00735379	     10.06322920	      9.18549995	     -3.69534085	     -4.49816388
      4.31000000	    -13.43300988	      1.40868710	     -1.29581464	      2.59805618	     -0.00953481	     -0.48329827	     36.55696555	     -2.25553613	     -3.28649965	    -19.44614993	     -6.34619465	     12.31975911	     23.80305490	      3.17490441	      5.68205913	     -4.85010820	     -5.73551721	      1.52081900	      8.15509653	     10.18680193	      9.26755887	     -3.59588699	     -4.63002711
      4.31500000	    -13.49427405	      1.32560377	     -1.18578696	      2.60331201	     -0.01005678	     -0.48332012	     36.47187154	     -2.05942764	     -3.05486080	    -17.87604924	     -6.61591372	     11.93034738	     23.33892430	      3.00497396	      5.56608413	     -4.76707109	     -5.91196019	      1.67681255	      8.39050517	     10.32864009	      9.28028483	     -3.47982833	     -4.74179080
      4.32000000	    -13.45049731	      1.25094959	     -1.12710822	      2.60863488	     -0.01049125	     -0.48326483	     36.25462052	     -1.84028015	     -2.68231276	    -16.32109866	     -6.80756638	     11.46748581	     22.62743168	      2.71201562	      5.45170035	     -4.84487668	     -6.07407416	      1.83843339	      8.78224342	     10.52463782	      9.18916297	     -3.36491846	     -4.82136398
      4.32500000	    -13.53636555	      1.16501919	     -0.98116786	      2.61389689	     -0.01107115	     -0.48338127	     36.18053913	     -1.68480721	     -2.45939650	    -14.80806266	     -7.06899252	     10.98452332	     22.06897989	      2.60125533	      5.33524166	     -4.74226454	     -6.30961376	      2.00154753	      9.00811736	     10.68474668	      9.22209454	     -3.24231002	     -4.96752024
      4.33000000	    -13.56226104	      1.05578438	     -0.92636306	      2.61931917	     -0.01157587	     -0.48339739	     36.02324426	     -1.45769140	     -2.16575662	    -13.31790039	     -7.31568223	     10.42913455	     21.29882484	      2.39001825	      5.18463248	     -4.78440710	     -6.49356230	      2.15211826	      9.32614694	     10.85978164	      9.21624017	     -3.07135660	     -5.00778592
